<?xml version="1.0" encoding="UTF-8"?>
<svg width="18px" height="18px" viewBox="0 0 18 18" version="1.1" xmlns="http://www.w3.org/2000/svg" xmlns:xlink="http://www.w3.org/1999/xlink">
    <!-- Generator: Sketch 50.2 (55047) - http://www.bohemiancoding.com/sketch -->
    <title>align-left</title>
    <desc>Created with Sketch.</desc>
    <defs></defs>
    <g id="align-left" stroke="none" stroke-width="1" fill="none" fill-rule="evenodd">
        <rect id="Rectangle-17" fill="#010101" x="10" y="2" width="8" height="2" rx="1"></rect>
        <rect id="Rectangle-17" fill="#010101" x="10" y="8" width="7" height="2" rx="1"></rect>
        <rect id="Rectangle-17" fill="#010101" x="0" y="14" width="16" height="2" rx="1"></rect>
        <rect id="Rectangle-17" fill="#010101" x="0" y="11" width="18" height="2" rx="1"></rect>
        <rect id="Rectangle-17" fill="#010101" x="10" y="5" width="5" height="2" rx="1"></rect>
        <path d="M2,4 L2,8 L6,8 L6,4 L2,4 Z M2,2 L6,2 C7.1045695,2 8,2.8954305 8,4 L8,8 C8,9.1045695 7.1045695,10 6,10 L2,10 C0.8954305,10 0,9.1045695 0,8 L0,4 C0,2.8954305 0.8954305,2 2,2 Z" id="Rectangle-16" fill="#010101" fill-rule="nonzero"></path>
    </g>
</svg>