<?xml version="1.0" encoding="UTF-8"?>
<svg width="18px" height="18px" viewBox="0 0 18 18" version="1.1" xmlns="http://www.w3.org/2000/svg" xmlns:xlink="http://www.w3.org/1999/xlink">
    <!-- Generator: Sketch 50 (54983) - http://www.bohemiancoding.com/sketch -->
    <title>full-bleed</title>
    <desc>Created with Sketch.</desc>
    <defs></defs>
    <g id="full-bleed" stroke="none" stroke-width="1" fill="none" fill-rule="evenodd">
        <path d="M2,4 L2,14 L16,14 L16,4 L2,4 Z M2,2 L16,2 C17.1045695,2 18,2.8954305 18,4 L18,14 C18,15.1045695 17.1045695,16 16,16 L2,16 C0.8954305,16 1.3527075e-16,15.1045695 0,14 L0,4 C-1.3527075e-16,2.8954305 0.8954305,2 2,2 Z M6.70710678,10.2928932 L5.41421356,9 L6.70710678,7.70710678 C7.09763107,7.31658249 7.09763107,6.68341751 6.70710678,6.29289322 C6.31658249,5.90236893 5.68341751,5.90236893 5.29289322,6.29289322 L3.29289322,8.29289322 C2.90236893,8.68341751 2.90236893,9.31658249 3.29289322,9.70710678 L5.29289322,11.7071068 C5.68341751,12.0976311 6.31658249,12.0976311 6.70710678,11.7071068 C7.09763107,11.3165825 7.09763107,10.6834175 6.70710678,10.2928932 Z M11.2928932,7.70710678 L12.5857864,9 L11.2928932,10.2928932 C10.9023689,10.6834175 10.9023689,11.3165825 11.2928932,11.7071068 C11.6834175,12.0976311 12.3165825,12.0976311 12.7071068,11.7071068 L14.7071068,9.70710678 C15.0976311,9.31658249 15.0976311,8.68341751 14.7071068,8.29289322 L12.7071068,6.29289322 C12.3165825,5.90236893 11.6834175,5.90236893 11.2928932,6.29289322 C10.9023689,6.68341751 10.9023689,7.31658249 11.2928932,7.70710678 Z" id="Combined-Shape" fill="#010101" fill-rule="nonzero"></path>
    </g>
</svg>