<?xml version="1.0" encoding="UTF-8"?>
<svg width="18px" height="18px" viewBox="0 0 18 18" version="1.1" xmlns="http://www.w3.org/2000/svg" xmlns:xlink="http://www.w3.org/1999/xlink">
    <!-- Generator: Sketch 50 (54983) - http://www.bohemiancoding.com/sketch -->
    <title>inset-right</title>
    <desc>Created with Sketch.</desc>
    <defs></defs>
    <g id="inset-right" stroke="none" stroke-width="1" fill="none" fill-rule="evenodd">
        <rect id="Rectangle-17" fill="#010101" x="0" y="2" width="8" height="2" rx="1"></rect>
        <rect id="Rectangle-17" fill="#010101" x="0" y="8" width="7" height="2" rx="1"></rect>
        <rect id="Rectangle-17" fill="#010101" x="0" y="14" width="16" height="2" rx="1"></rect>
        <rect id="Rectangle-17" fill="#010101" x="0" y="11" width="18" height="2" rx="1"></rect>
        <rect id="Rectangle-17" fill="#010101" x="0" y="5" width="5" height="2" rx="1"></rect>
        <path d="M12,4 L12,8 L16,8 L16,4 L12,4 Z M12,2 L16,2 C17.1045695,2 18,2.8954305 18,4 L18,8 C18,9.1045695 17.1045695,10 16,10 L12,10 C10.8954305,10 10,9.1045695 10,8 L10,4 C10,2.8954305 10.8954305,2 12,2 Z" id="Rectangle-16" fill="#010101" fill-rule="nonzero"></path>
    </g>
</svg>