<?xml version="1.0" encoding="UTF-8"?>
<svg width="18px" height="18px" viewBox="0 0 18 18" version="1.1" xmlns="http://www.w3.org/2000/svg" xmlns:xlink="http://www.w3.org/1999/xlink">
    <!-- Generator: Sketch 48.2 (47327) - http://www.bohemiancoding.com/sketch -->
    <title>key</title>
    <desc>Created with Sketch.</desc>
    <defs></defs>
    <g id="Symbols" stroke="none" stroke-width="1" fill="none" fill-rule="evenodd">
        <g id="key" fill="#010101">
            <path d="M1.48379318,13.7587476 L6.74527946,8.49726128 C5.4691375,6.33652904 5.7593184,3.50683701 7.61582218,1.65033324 C9.81626649,-0.55011108 13.3838916,-0.55011108 15.584336,1.65033324 C17.7847803,3.85077756 17.7847803,7.4184027 15.584336,9.61884701 C13.7278331,11.4753499 10.8981429,11.7655314 8.73741109,10.4893916 L8.11385682,11.1129459 C7.7012754,11.5255284 7.70127586,12.1944558 8.11385784,12.6070378 C8.52643965,13.0196196 8.52643965,13.6885469 8.11385784,14.1011287 L7.86483823,14.3501521 C7.45225492,14.7627354 6.78332521,14.7627354 6.3707419,14.3501521 L6.12172584,14.101136 C5.8466703,13.8260805 5.40071716,13.8260805 5.12566162,14.101136 C4.85060608,14.3761916 4.85060608,14.8221447 5.12566162,15.0972002 L5.62368578,15.5952403 C6.17379375,16.1453483 6.17379731,17.0372484 5.62367932,17.5874264 C5.0735629,18.1375321 4.18165661,18.1375234 3.63155087,17.587407 L1.48379318,15.4396111 C1.01963555,14.9754534 1.01963555,14.2229052 1.48379318,13.7587476 Z M14.5882717,4.6385259 C15.1383828,4.08841483 15.1383828,3.19650854 14.5882717,2.64639746 C14.0381607,2.09628638 13.1462544,2.09628638 12.5961433,2.64639746 C12.0460322,3.19650854 12.0460322,4.08841483 12.5961433,4.6385259 C13.1462544,5.18863698 14.0381607,5.18863698 14.5882717,4.6385259 Z" id="Combined-Shape" transform="translate(9.185172, 9.000000) scale(-1, 1) translate(-9.185172, -9.000000) "></path>
        </g>
    </g>
</svg>