<?xml version="1.0" encoding="UTF-8"?>
<svg width="18px" height="18px" viewBox="0 0 18 18" version="1.1" xmlns="http://www.w3.org/2000/svg" xmlns:xlink="http://www.w3.org/1999/xlink">
    <!-- Generator: Sketch 50.2 (55047) - http://www.bohemiancoding.com/sketch -->
    <title>pin</title>
    <desc>Created with Sketch.</desc>
    <defs></defs>
    <g id="pin" stroke="none" stroke-width="1" fill="none" fill-rule="evenodd">
        <path d="M12,4.91464715 L12,9 L13,9 C13.5522847,9 14,9.44771525 14,10 C14,10.5522847 13.5522847,11 13,11 L9.8125,11 L9.53118914,15.5009737 C9.5136578,15.7814752 9.2810488,16 9,16 C8.7189512,16 8.4863422,15.7814752 8.46881086,15.5009737 L8.1875,11 L5,11 C4.44771525,11 4,10.5522847 4,10 C4,9.44771525 4.44771525,9 5,9 L6,9 L6,4.91464715 C5.41740381,4.70872894 5,4.15310941 5,3.5 C5,2.67157288 5.67157288,2 6.5,2 L11.5,2 C12.3284271,2 13,2.67157288 13,3.5 C13,4.15310941 12.5825962,4.70872894 12,4.91464715 Z" id="Combined-Shape" fill="#010101"></path>
    </g>
</svg>