<?xml version="1.0" encoding="UTF-8"?>
<svg width="24px" height="24px" viewBox="0 0 24 24" version="1.1" xmlns="http://www.w3.org/2000/svg" xmlns:xlink="http://www.w3.org/1999/xlink">
    <!-- Generator: Sketch 48.2 (47327) - http://www.bohemiancoding.com/sketch -->
    <title>sad</title>
    <desc>Created with Sketch.</desc>
    <defs></defs>
    <g id="Symbols" stroke="none" stroke-width="1" fill="none" fill-rule="evenodd">
        <g id="sad" fill="#010101">
            <path d="M12,24 C5.372583,24 0,18.627417 0,12 C0,5.372583 5.372583,0 12,0 C18.627417,0 24,5.372583 24,12 C24,18.627417 18.627417,24 12,24 Z M21.2868928,8.60919949 C19.8025466,9.66282814 17.975611,10.2843023 16,10.2843023 C13.1628848,10.2843023 10.6323824,9.00263841 8.98278831,7 C7.75429689,8.96928932 5.53444394,10.2843023 3,10.2843023 C2.7326031,10.2843023 2.46870802,10.2696644 2.20910956,10.2411647 C2.07203769,10.8854309 2,11.5529614 2,12.2369186 C2,17.6289196 6.4771525,22 12,22 C17.5228475,22 22,17.6289196 22,12.2369186 C22,10.9549629 21.7469258,9.73071557 21.2868928,8.60919949 Z M8,14 C7.44771525,14 7,13.5522847 7,13 C7,12.4477153 7.44771525,12 8,12 C8.55228475,12 9,12.4477153 9,13 C9,13.5522847 8.55228475,14 8,14 Z M16,14 C15.4477153,14 15,13.5522847 15,13 C15,12.4477153 15.4477153,12 16,12 C16.5522847,12 17,12.4477153 17,13 C17,13.5522847 16.5522847,14 16,14 Z M12,20 C10.8954305,20 10,19.1045695 10,18 C10,16.8954305 10.8954305,16 12,16 C13.1045695,16 14,16.8954305 14,18 C14,19.1045695 13.1045695,20 12,20 Z" id="Combined-Shape"></path>
        </g>
    </g>
</svg>