<?xml version="1.0" encoding="UTF-8"?>
<svg width="18px" height="18px" viewBox="0 0 18 18" version="1.1" xmlns="http://www.w3.org/2000/svg" xmlns:xlink="http://www.w3.org/1999/xlink">
    <!-- Generator: Sketch 48.2 (47327) - http://www.bohemiancoding.com/sketch -->
    
    
    <defs></defs>
    <g id="Symbols" stroke="none" stroke-width="1" fill="none" fill-rule="evenodd">
        <g id="trash" fill="#010101">
            <path d="M4,7 L4,15 C4,15.5522847 4.44771525,16 5,16 L13,16 C13.5522847,16 14,15.5522847 14,15 L14,7 C14,6.44771525 14.4477153,6 15,6 C15.5522847,6 16,6.44771525 16,7 L16,15 C16,16.6568542 14.6568542,18 13,18 L5,18 C3.34314575,18 2,16.6568542 2,15 L2,7 C2,6.44771525 2.44771525,6 3,6 C3.55228475,6 4,6.44771525 4,7 Z M11,7 C11.5522847,7 12,7.44771525 12,8 L12,14 C12,14.5522847 11.5522847,15 11,15 C10.4477153,15 10,14.5522847 10,14 L10,8 C10,7.44771525 10.4477153,7 11,7 Z M7,7 C7.55228475,7 8,7.44771525 8,8 L8,14 C8,14.5522847 7.55228475,15 7,15 C6.44771525,15 6,14.5522847 6,14 L6,8 C6,7.44771525 6.44771525,7 7,7 Z M5,3 L5,2 C5,0.8954305 5.8954305,1.09108455e-15 7,8.8817842e-16 L11,8.8817842e-16 C12.1045695,6.85272294e-16 13,0.8954305 13,2 L13,3 L16,3 C16.5522847,3 17,3.44771525 17,4 C17,4.55228475 16.5522847,5 16,5 L2,5 C1.44771525,5 1,4.55228475 1,4 C1,3.44771525 1.44771525,3 2,3 L5,3 Z M7.5,1.5 C7.22385763,1.5 7,1.72385763 7,2 L7,3 L11,3 L11,2 C11,1.72385763 10.7761424,1.5 10.5,1.5 L7.5,1.5 Z" id="Combined-Shape"></path>
        </g>
    </g>
</svg>